<svg width="83" height="80" viewBox="0 0 83 80" fill="none" xmlns="http://www.w3.org/2000/svg">
<path d="M81.3293 79.7718H1.53452C0.687112 79.7718 0 79.1042 0 78.2809V36.5339C0 35.7106 0.687112 35.043 1.53452 35.043H81.3293C81.7362 35.043 82.1267 35.2001 82.4144 35.4796C82.7021 35.7592 82.8638 36.1386 82.8638 36.5339V78.2809C82.8638 78.6762 82.7021 79.0556 82.4144 79.3352C82.1267 79.6147 81.7362 79.7718 81.3293 79.7718ZM3.06903 76.7899H79.7948V38.0249H3.06903V76.7899Z" fill="white" fill-opacity="0.8"/>
<path d="M80.4244 38.0248H19.7347C19.0216 38.0487 18.3859 37.5915 18.2002 36.9212C18.018 36.2656 18.3146 35.5733 18.9216 35.2365L64.4502 9.69594C64.8037 9.49691 65.225 9.443 65.6196 9.54684C66.0142 9.65001 66.3499 9.90227 66.5526 10.2477L81.7594 35.7883C82.0334 36.2496 82.0334 36.818 81.7594 37.2793C81.484 37.7426 80.975 38.0268 80.4242 38.0248H80.4244ZM25.4589 35.0429H77.771L64.6816 13.0516L25.4589 35.0429Z" fill="white" fill-opacity="0.8"/>
<path d="M19.733 38.0251H12.736C12.1859 38.0271 11.6762 37.7429 11.4008 37.2796C11.1268 36.8183 11.1268 36.2499 11.4008 35.7886L32.2246 0.751869C32.4281 0.406426 32.7651 0.154155 33.1604 0.0509805C33.5543 -0.0515227 33.9743 0.00172589 34.327 0.200077L58.6636 13.8569V13.8576C59.1445 14.1219 59.4418 14.6177 59.4418 15.1542C59.4418 15.6914 59.1445 16.1866 58.6636 16.4515L20.4691 37.8464C20.2423 37.9649 19.9895 38.0268 19.7319 38.0254L19.733 38.0251ZM15.3447 35.0431H19.3344L54.844 15.1239L34.1429 3.50904L15.3447 35.0431Z" fill="white" fill-opacity="0.8"/>
<path d="M69.0532 73.8078H13.8107C12.9633 73.8078 12.2762 73.1402 12.2762 72.3169C12.2762 71.1308 11.7911 69.9925 10.928 69.154C10.0648 68.3155 8.8933 67.8441 7.6727 67.8441C6.8253 67.8441 6.13818 67.1765 6.13818 66.3531V48.4616C6.13818 47.6382 6.8253 46.9706 7.6727 46.9706C8.89345 46.9706 10.065 46.4993 10.928 45.6607C11.791 44.822 12.2762 43.6838 12.2762 42.4978C12.2762 41.6744 12.9633 41.0068 13.8107 41.0068H69.0532C69.4601 41.0068 69.8506 41.1639 70.1384 41.4435C70.4261 41.723 70.5877 42.1024 70.5877 42.4978C70.5877 43.6839 71.0728 44.8222 71.9359 45.6607C72.7991 46.4992 73.9706 46.9706 75.1912 46.9706C75.5981 46.9706 75.9886 47.1277 76.2763 47.4072C76.564 47.6868 76.7257 48.0662 76.7257 48.4616V66.3531C76.7257 66.7485 76.564 67.1279 76.2763 67.4074C75.9886 67.687 75.5981 67.8441 75.1912 67.8441C73.9704 67.8441 72.7989 68.3153 71.9359 69.154C71.0729 69.9927 70.5877 71.1309 70.5877 72.3169C70.5877 72.7122 70.4261 73.0916 70.1384 73.3712C69.8506 73.6507 69.4601 73.8078 69.0532 73.8078ZM15.1926 70.8259H67.673C67.9738 69.3935 68.7013 68.0783 69.7659 67.0447C70.8298 66.0103 72.1835 65.3034 73.6577 65.0112V49.8033C72.1834 49.5111 70.8298 48.8043 69.7659 47.7698C68.7014 46.7362 67.9738 45.4209 67.673 43.9886H15.1926C14.8919 45.421 14.1643 46.7362 13.0997 47.7698C12.0358 48.8042 10.6822 49.5111 9.208 49.8033V65.0112C10.6822 65.3033 12.0359 66.0102 13.0997 67.0447C14.1643 68.0783 14.8918 69.3936 15.1926 70.8259Z" fill="white" fill-opacity="0.8"/>
<path d="M73.3183 38.0252H32.0091C31.296 38.0492 30.6603 37.5919 30.4746 36.9217C30.2924 36.266 30.589 35.5738 31.196 35.237L56.8689 20.8347C57.2223 20.6363 57.6416 20.5824 58.0355 20.6856C58.4315 20.7881 58.7685 21.0403 58.9713 21.3864C59.5803 22.4141 60.5852 23.165 61.7643 23.4738C62.9405 23.778 64.1928 23.6169 65.2477 23.0265C65.5984 22.8228 66.0184 22.7636 66.4137 22.8621C66.8055 22.9733 67.1391 23.2235 67.3501 23.563L74.6083 35.7889C74.8823 36.2501 74.8823 36.8186 74.6083 37.2798C74.3411 37.7291 73.8533 38.012 73.319 38.0253L73.3183 38.0252ZM37.7333 35.0433H70.6631L65.4149 26.2167C63.9907 26.6792 62.4576 26.7245 61.0066 26.3484C59.5549 25.9724 58.2492 25.1903 57.2511 24.0994L37.7333 35.0433Z" fill="white" fill-opacity="0.8"/>
<path d="M19.9487 38.0251C19.5411 38.0271 19.1486 37.872 18.8595 37.5924C18.3656 37.1152 18.2649 36.3744 18.6136 35.7886L31.4884 14.1092C31.6987 13.7704 32.033 13.5201 32.4242 13.4089C32.8201 13.3104 33.2401 13.3697 33.5908 13.5727C34.6472 14.1617 35.9008 14.3202 37.0771 14.0126C38.254 13.7051 39.2569 12.957 39.8665 11.9326C40.07 11.5872 40.407 11.3349 40.803 11.2317C41.1969 11.1372 41.6134 11.1905 41.9689 11.3808L52.6188 17.3447C53.0991 17.6096 53.3964 18.1048 53.3964 18.642C53.3964 19.1791 53.0991 19.6743 52.6188 19.9392L20.7167 37.8308C20.4831 37.9592 20.218 38.0264 19.9494 38.0245L19.9487 38.0251ZM33.4524 16.7648L24.061 32.3899L48.7062 18.6431L41.5557 14.6475H41.555C40.5556 15.7411 39.2478 16.5245 37.7935 16.9006C36.3391 17.2773 34.8032 17.2301 33.3762 16.7648L33.4524 16.7648Z" fill="white" fill-opacity="0.8"/>
<path d="M41.4319 67.8442C38.5828 67.8442 35.8508 66.7446 33.8367 64.7871C31.822 62.8303 30.6903 60.1759 30.6903 57.4074C30.6903 54.639 31.822 51.9848 33.8367 50.0278C35.8507 48.0703 38.5826 46.9707 41.4319 46.9707C44.2812 46.9707 47.013 48.0703 49.0271 50.0278C51.0418 51.9846 52.1735 54.639 52.1735 57.4074C52.1735 60.1759 51.0418 62.8301 49.0271 64.7871C47.0132 66.7446 44.2812 67.8442 41.4319 67.8442ZM41.4319 49.9526C39.3972 49.9526 37.4457 50.7381 36.0062 52.1357C34.5676 53.5342 33.7593 55.4305 33.7593 57.4074C33.7593 59.3844 34.5677 61.2805 36.0062 62.6791C37.4455 64.0769 39.3972 64.8622 41.4319 64.8622C43.4666 64.8622 45.4181 64.0768 46.8576 62.6791C48.2962 61.2807 49.1045 59.3844 49.1045 57.4074C49.1045 55.4305 48.2961 53.5343 46.8576 52.1357C45.4183 50.738 43.4666 49.9526 41.4319 49.9526Z" fill="white" fill-opacity="0.8"/>
</svg>
