<svg width="60" height="81" viewBox="0 0 60 81" fill="none" xmlns="http://www.w3.org/2000/svg">
<path fill-rule="evenodd" clip-rule="evenodd" d="M54.7925 37.2377V72.5474C54.7913 73.2542 54.5024 73.932 53.9878 74.432C53.4738 74.9321 52.7767 75.2144 52.0492 75.2161H8.09704C7.36956 75.2144 6.6725 74.9321 6.1585 74.432C5.6445 73.932 5.355 73.2542 5.35441 72.5474V37.2377C5.355 36.5308 5.64447 35.853 6.1585 35.353C6.67253 34.853 7.36959 34.5717 8.09704 34.57H52.0492C52.7767 34.5717 53.4738 34.853 53.9878 35.353C54.5024 35.853 54.7913 36.5308 54.7925 37.2377ZM30.07 6.24076C34.0799 6.2436 37.9249 7.79249 40.7605 10.547C43.5961 13.3015 45.1909 17.0375 45.1944 20.9335C45.1944 21.8131 45.6774 22.6262 46.4616 23.0659C47.2458 23.5057 48.2113 23.5057 48.9955 23.0659C49.7797 22.6261 50.2627 21.8131 50.2627 20.9335C50.3651 15.667 48.2832 10.5811 44.4862 6.82128C40.6892 3.0615 35.495 0.943359 30.0735 0.943359C24.6519 0.943359 19.4585 3.0615 15.6609 6.82128C11.8639 10.5811 9.78193 15.6668 9.88492 20.9335V29.6433H8.09773C6.0258 29.6462 4.03935 30.4473 2.57388 31.8706C1.10839 33.2945 0.283228 35.2241 0.279785 37.2377V72.5474C0.283294 74.5611 1.10784 76.4911 2.57328 77.915C4.03877 79.3383 6.02535 80.1395 8.09773 80.1428H52.0499C54.1219 80.1394 56.1073 79.3377 57.5715 77.9138C59.0358 76.4899 59.8592 74.5598 59.861 72.5472V37.2375C59.8592 35.225 59.0359 33.2949 57.5715 31.8715C56.1072 30.4476 54.1213 29.6458 52.0499 29.6431H14.9528V20.9332C14.9563 17.0383 16.5498 13.3036 19.3844 10.5495C22.2183 7.79482 26.0616 6.24483 30.0702 6.24032L30.07 6.24076ZM30.07 49.6568V49.6573C29.3004 49.6556 28.6057 50.1051 28.3104 50.7954C28.0144 51.4858 28.1764 52.2813 28.7203 52.8107C29.2636 53.3397 30.0823 53.4988 30.7934 53.213C31.5045 52.9272 31.9683 52.2528 31.9683 51.5051C31.9659 50.4874 31.1174 49.6636 30.07 49.6612V49.6568ZM27.5361 57.8126V62.5905C27.5361 63.4701 28.0191 64.2826 28.8027 64.7224C29.5869 65.1621 30.5529 65.1621 31.3372 64.7224C32.1209 64.2826 32.6039 63.4701 32.6039 62.5905V57.8131C34.6396 57.0415 36.1858 55.3881 36.7804 53.3448C37.3751 51.3022 36.95 49.1067 35.6319 47.413C34.3137 45.7197 32.2546 44.7249 30.07 44.7249C27.8853 44.7249 25.8261 45.7198 24.5081 47.413C23.19 49.1068 22.7648 51.3022 23.3596 53.3448C23.9543 55.3881 25.5005 57.0415 27.5361 57.8131V57.8126Z" fill="white" fill-opacity="0.8"/>
</svg>
