<svg width="77" height="83" viewBox="0 0 77 83" fill="none" xmlns="http://www.w3.org/2000/svg">
<path d="M24.8969 32.3178C24.8969 31.422 25.6948 30.8868 27.0318 30.8868C28.7998 30.8868 30.3878 31.6327 31.8477 32.5298L33.6113 28.0586C32.2228 27.1991 30.6889 26.5652 29.0495 26.3488L29.0489 23.1992H24.3583V26.6325C21.3459 27.4996 19.4207 29.8452 19.4207 32.694C19.4207 36.4487 22.5689 38.1416 25.6444 39.3006C28.1634 40.2796 28.5108 41.1085 28.5108 41.858C28.5108 42.9214 27.4581 43.664 25.9513 43.664C23.9251 43.664 22.1615 42.7382 20.562 41.621L18.8679 46.1589C20.4359 47.286 22.1802 47.9993 24.1297 48.2437V51.5077H28.853V47.9793C31.9587 47.076 34.0196 44.5673 34.0196 41.6378C34.0196 38.4039 32.258 36.3352 28.1291 34.7217C25.1211 33.5264 24.8966 32.9938 24.8966 32.3174L24.8969 32.3178Z" fill="white" fill-opacity="0.8"/>
<path d="M74.0722 49.9088C74.0722 41.9243 67.3055 35.429 58.9887 35.429C56.009 35.429 53.2308 36.2661 50.8894 37.7033C49.6991 30.5609 46.2761 23.463 41.7086 18.433C46.309 19.4001 49.9044 21.8644 52.4117 25.778L57.3055 22.8179C53.5377 16.9371 47.7103 13.3894 40.4536 12.558C39.8167 12.4848 39.1964 12.4367 38.5948 12.408L43.0357 4.94806C44.1244 3.11945 42.6702 0.745117 40.5406 0.745117H11.0601C8.94717 0.745117 7.48978 3.10201 8.55152 4.92485L14.1795 14.5904C6.22873 20.2131 0.252747 32.1979 0.252747 43.0629C0.252747 59.8206 14.8332 61.7587 25.8015 61.7587C32.0974 61.7587 40.3266 61.1448 45.7088 56.7562C46.0331 57.3332 46.3947 57.8877 46.7943 58.414C43.045 59.9156 40.9804 62.1449 40.9804 64.8281V74.2435C40.9804 80.0298 50.3163 82.6649 58.9902 82.6649C67.6633 82.6649 77 80.0292 77 74.2435V64.8287C77 62.1449 74.9346 59.9163 71.1861 58.414C72.9999 56.024 74.073 53.0846 74.073 49.9083L74.0722 49.9088ZM35.544 6.34624C35.544 6.34624 31.2229 12.959 31.0658 12.9941H19.8736L16.0029 6.34624H35.544ZM25.8009 56.1567C9.38218 56.1567 6.01707 50.9224 6.01707 43.063C6.01707 38.3031 7.40877 33.0631 9.93545 28.3076C12.2131 24.0216 15.2532 20.525 18.3584 18.5951H33.2407C36.3463 20.5255 39.3865 24.0214 41.6636 28.3076C44.2096 33.0988 45.1953 37.9531 45.5911 43.2675C44.4303 45.4162 43.8436 47.8837 43.913 50.3099C42.2826 52.983 38.395 56.1569 25.801 56.1569L25.8009 56.1567ZM58.9891 41.0294C64.1273 41.0294 68.3076 45.0123 68.3076 49.9079C68.3076 54.8035 64.1273 58.7864 58.9891 58.7864C53.8508 58.7864 49.6705 54.8035 49.6705 49.9079C49.6705 45.0123 53.8508 41.0294 58.9891 41.0294ZM51.9617 62.7147C54.0618 63.7812 56.4528 64.3882 58.9891 64.3882C61.5253 64.3882 63.9163 63.7812 66.0164 62.7147C69.0154 63.373 70.6304 64.3151 71.1263 64.8309C70.2358 65.7798 66.035 67.6483 58.9895 67.6483C51.9436 67.6483 47.7434 65.7797 46.8521 64.8309C47.3475 64.3151 48.9624 63.3724 51.9615 62.7147H51.9617ZM71.2332 74.1118C70.6439 75.0046 66.3832 77.0631 58.9884 77.0631C51.5936 77.0631 47.3329 75.0045 46.7429 74.1118V71.2131C50.1594 72.5915 54.6562 73.2492 58.9884 73.2492C63.3199 73.2492 67.8167 72.5922 71.2332 71.2131V74.1118Z" fill="white" fill-opacity="0.8"/>
<path d="M59.7421 48.5809C58.4347 48.0633 58.4347 47.8688 58.4347 47.6969C58.4347 47.5325 58.5318 47.2562 59.1836 47.2562C59.9609 47.2562 60.7851 47.6269 61.4124 48.0633L62.3324 45.7365C61.7173 45.3582 60.9613 45.0169 60.2709 44.9031V43.4878H57.8073V45.0507C56.4561 45.4864 55.6255 46.5492 55.6255 47.8626C55.6255 49.6417 57.1626 50.4481 58.4989 50.9515C59.6429 51.3947 59.6429 51.7123 59.6429 51.9023C59.6429 52.2705 59.2755 52.5087 58.7067 52.5087C57.8156 52.5087 56.9026 52.0549 56.2258 51.5091L55.3405 53.8703C56.0276 54.4011 56.8364 54.7449 57.7056 54.8812V56.3459H60.1834V54.7406C61.577 54.2861 62.4661 53.1527 62.4661 51.8054C62.4655 49.8663 60.911 49.0366 59.7419 48.581C58.4339 48.0634 60.911 49.0367 59.7419 48.581C58.4339 48.0634 60.911 49.0367 59.7419 48.581C58.4339 48.0634 60.911 49.0367 59.7419 48.581C58.4339 48.0634 60.911 49.0367 59.7419 48.581L59.7421 48.5809Z" fill="white" fill-opacity="0.8"/>
</svg>
