<svg width="17" height="29" viewBox="0 0 17 29" fill="none" xmlns="http://www.w3.org/2000/svg">
<path d="M6.89693 9.31782C6.89693 8.42197 7.69477 7.88685 9.03178 7.88685C10.7998 7.88685 12.3878 8.63266 13.8477 9.52981L15.6113 5.05864C14.2228 4.19905 12.6889 3.56516 11.0495 3.34879L11.0489 0.199219H6.35833V3.63253C3.34588 4.49962 1.4207 6.84515 1.4207 9.69401C1.4207 13.4487 4.56887 15.1416 7.64441 16.3006C10.1634 17.2796 10.5108 18.1085 10.5108 18.858C10.5108 19.9214 9.45814 20.664 7.95127 20.664C5.92513 20.664 4.16154 19.7382 2.562 18.621L0.86792 23.1589C2.43591 24.286 4.18015 24.9993 6.12971 25.2437V28.5077H10.853V24.9793C13.9587 24.076 16.0196 21.5673 16.0196 18.6378C16.0196 15.4039 14.258 13.3352 10.1291 11.7217C7.12112 10.5264 6.89661 9.99376 6.89661 9.31744L6.89693 9.31782Z" fill="white" fill-opacity="0.8"/>
</svg>
