<svg width="23" height="22" viewBox="0 0 23 22" fill="none" xmlns="http://www.w3.org/2000/svg">
<path d="M11.4319 21.8442C8.5828 21.8442 5.85084 20.7446 3.83668 18.7871C1.82199 16.8303 0.690308 14.1759 0.690308 11.4074C0.690308 8.63902 1.82201 5.98477 3.83668 4.02777C5.85066 2.07027 8.58263 0.970703 11.4319 0.970703C14.2812 0.970703 17.013 2.07029 19.0271 4.02777C21.0418 5.9846 22.1735 8.63902 22.1735 11.4074C22.1735 14.1759 21.0418 16.8301 19.0271 18.7871C17.0132 20.7446 14.2812 21.8442 11.4319 21.8442ZM11.4319 3.95263C9.39723 3.95263 7.44568 4.73805 6.00622 6.13574C4.56762 7.53418 3.75934 9.43051 3.75934 11.4074C3.75934 13.3844 4.56771 15.2805 6.00622 16.6791C7.44551 18.0769 9.39723 18.8622 11.4319 18.8622C13.4666 18.8622 15.4181 18.0768 16.8576 16.6791C18.2962 15.2807 19.1045 13.3844 19.1045 11.4074C19.1045 9.43051 18.2961 7.53435 16.8576 6.13574C15.4183 4.73797 13.4666 3.95263 11.4319 3.95263Z" fill="white" fill-opacity="0.8"/>
</svg>
